<svg width="150" height="68" viewBox="0 0 150 68" fill="none" xmlns="http://www.w3.org/2000/svg">
<g clip-path="url(#clip0_1_8)">
<path d="M0 67H150" stroke="#FCBB08" stroke-width="2" stroke-linecap="square"/>
<path d="M53.3474 55.288C50.8034 55.288 48.5114 54.736 46.4714 53.632C44.4314 52.504 42.8234 50.956 41.6474 48.988C40.4954 47.02 39.9194 44.824 39.9194 42.4C39.9194 39.976 40.4954 37.78 41.6474 35.812C42.8234 33.844 44.4314 32.308 46.4714 31.204C48.5114 30.076 50.8034 29.512 53.3474 29.512C55.8674 29.512 58.1474 30.076 60.1874 31.204C62.2274 32.308 63.8234 33.844 64.9754 35.812C66.1274 37.756 66.7034 39.952 66.7034 42.4C66.7034 44.848 66.1274 47.056 64.9754 49.024C63.8234 50.968 62.2274 52.504 60.1874 53.632C58.1474 54.736 55.8674 55.288 53.3474 55.288ZM53.3474 52.084C55.1954 52.084 56.8514 51.664 58.3154 50.824C59.8034 49.984 60.9674 48.832 61.8074 47.368C62.6714 45.88 63.1034 44.224 63.1034 42.4C63.1034 40.576 62.6714 38.932 61.8074 37.468C60.9674 35.98 59.8034 34.816 58.3154 33.976C56.8514 33.136 55.1954 32.716 53.3474 32.716C51.4994 32.716 49.8194 33.136 48.3074 33.976C46.8194 34.816 45.6434 35.98 44.7794 37.468C43.9394 38.932 43.5194 40.576 43.5194 42.4C43.5194 44.224 43.9394 45.88 44.7794 47.368C45.6434 48.832 46.8194 49.984 48.3074 50.824C49.8194 51.664 51.4994 52.084 53.3474 52.084ZM95.5698 55L95.5338 36.64L86.4258 51.94H84.7698L75.6618 36.748V55H72.2058V29.8H75.1578L85.6698 47.512L96.0378 29.8H98.9898L99.0258 55H95.5698Z" fill="white"/>
<path d="M114.129 19.6298L112.716 19.1976C112.52 19.1377 112.313 19.1941 112.181 19.3433C111.837 19.7309 111.46 20.0994 111.06 20.4387C108.096 22.9537 104.376 23.8125 100.301 22.9233C96.2468 22.0386 94.3833 19.692 91.8042 16.4441C91.6197 16.2118 91.4322 15.9756 91.2403 15.7357C91.2184 15.7083 91.1928 15.6724 91.1655 15.6344C91.0939 15.5343 91.0048 15.4098 90.8793 15.287C90.7088 15.1201 90.5231 14.9646 90.3273 14.825C89.9227 14.5364 89.6529 14.082 89.5872 13.5784L89.1536 10.2566C89.1348 10.1126 89.061 9.97958 88.9483 9.88658C88.8357 9.79352 88.6935 9.74818 88.5529 9.76061L86.4129 9.94883C86.1204 9.97446 85.9149 10.2384 85.9539 10.5381L86.3698 13.7244C86.4154 14.0732 86.3026 14.428 86.0604 14.6977C85.6905 15.1095 85.502 15.6178 85.5154 16.1673C85.6838 23.1161 90.3428 28.2594 97.9782 29.9255C101.274 30.6445 104.778 30.2145 107.845 28.7146C108.463 28.4127 109.047 28.0749 109.595 27.7029C110.36 27.1844 111.055 26.5995 111.673 25.9536C112.778 24.7991 113.581 23.5062 114.06 22.111C114.265 21.5124 114.422 20.8917 114.526 20.266C114.571 19.989 114.399 19.7123 114.129 19.6298ZM87.0843 10.9875L88.1648 10.8925L88.4522 13.0943L88.0159 13.105L87.3629 13.121L87.0843 10.9875ZM108.983 26.7872C106.012 28.8018 101.981 29.6956 98.1543 28.8607C91.0642 27.3135 86.7388 22.5775 86.5841 16.1918C86.5757 15.8488 86.7319 15.6009 86.8644 15.4535C87.1792 15.1029 87.3743 14.6684 87.4313 14.2102L88.6398 14.1806C88.8323 14.7938 89.2183 15.3339 89.7423 15.7076C89.8899 15.8129 90.0297 15.9299 90.1579 16.0553C90.2106 16.107 90.2575 16.1726 90.3119 16.2485C90.3468 16.2973 90.3828 16.3477 90.424 16.3992C90.6151 16.6383 90.802 16.8735 90.9857 17.1049C93.6095 20.409 95.6819 23.0186 100.125 23.9881C102.352 24.474 104.501 24.4727 106.513 23.9844C108.338 23.5414 110.017 22.7073 111.509 21.5031L111.544 21.5206L111.736 21.6142C110.967 22.8093 109.985 23.8047 108.849 24.5753C106.352 26.2686 103.113 26.879 99.7674 26.149C94.558 25.0123 90.8473 22.2086 89.319 18.2544C89.2092 17.9702 88.898 17.8198 88.6239 17.9184C88.3499 18.0169 88.2169 18.3273 88.3267 18.6116C89.9992 22.9387 93.9997 25.9938 99.5913 27.2138C102.32 27.8091 105.029 27.5923 107.428 26.5867C108.156 26.2813 108.841 25.9101 109.478 25.478C110.785 24.5915 111.886 23.4491 112.729 22.0992L112.875 22.1707C112.121 24.0172 110.737 25.5976 108.983 26.7872ZM113.222 21.1544L113.003 21.0477L112.373 20.7396C112.508 20.6079 112.64 20.4733 112.769 20.3361L113.379 20.5226C113.333 20.7348 113.281 20.9456 113.222 21.1544Z" fill="white"/>
</g>
<defs>
<clipPath id="clip0_1_8">
<rect width="150" height="68" fill="white"/>
</clipPath>
</defs>
</svg>
