<svg width="50" height="50" viewBox="0 0 50 50" fill="none" xmlns="http://www.w3.org/2000/svg">
<g clip-path="url(#clip0_1_224)">
<path fill-rule="evenodd" clip-rule="evenodd" d="M45.3906 14.3444L43.7566 15.948C40.2162 12.9194 35.6766 11.2256 30.9566 11.2256C27.7787 11.2256 24.6026 12.0274 21.8792 13.4523L28.7779 6.68189C29.3226 7.03771 29.9575 7.21645 30.5941 7.21645C31.5013 7.21645 32.4102 6.86063 33.1353 6.14734C34.5872 4.72243 34.5872 2.49402 33.1353 1.0691C32.4085 0.355811 31.5013 0 30.5941 0C29.6868 0 28.7779 0.355811 28.0528 1.0691C26.8732 2.31695 26.6911 4.09767 27.5081 5.43405L18.7932 13.9869L17.1592 12.3832L12.7115 16.7482L14.3455 18.3518L5.44852 27.0834C4.90384 26.7276 4.26894 26.5488 3.63235 26.5488C2.72511 26.5488 1.81618 26.9046 1.09107 27.6179C-0.360842 29.0429 -0.360842 31.2713 1.09107 32.6962C1.81788 33.3193 2.72511 33.6767 3.63235 33.6767C4.53958 33.6767 5.44852 33.3209 6.17363 32.6076C7.3532 31.45 7.53533 29.6676 6.71831 28.2427L13.617 21.4723C9.98639 28.3329 10.8034 36.8857 16.1583 42.9429L14.5243 44.6351L19.0638 49L23.5115 44.6351L19.0638 40.2701L17.52 41.7852C12.2553 35.7264 11.983 26.9965 16.4306 20.5819L17.1575 21.2952L21.697 16.9303L20.88 16.217C23.7855 14.1673 27.326 13.0982 30.9566 13.0982C35.2238 13.0982 39.217 14.6133 42.4851 17.2861L40.8511 18.8012L45.3906 23.1661L49.8383 18.8012L45.3906 14.346V14.3444ZM20.9702 44.635L19.0639 46.506L17.1575 44.635L19.0639 42.7641L20.9702 44.635V44.635ZM29.3226 2.40559C29.6851 2.04978 30.1396 1.87104 30.5941 1.87104C31.0485 1.87104 31.5013 2.04978 31.8656 2.40559C32.5924 3.11889 32.5924 4.18799 31.8656 4.89961C31.503 5.25542 31.0485 5.43416 30.5941 5.43416C30.1396 5.43416 29.6868 5.25542 29.3226 4.89961C28.5958 4.27652 28.5958 3.11722 29.3226 2.40559V2.40559ZM4.90211 31.3597C4.53956 31.7156 4.08509 31.8943 3.63062 31.8943C3.17616 31.8943 2.72339 31.7156 2.35913 31.3597C1.99658 31.0925 1.81445 30.6465 1.81445 30.1119C1.81445 29.6659 1.99658 29.2215 2.35913 28.8641C2.72169 28.5066 3.17616 28.3295 3.63062 28.3295C4.08509 28.3295 4.53786 28.5082 4.90211 28.8641C5.62892 29.5773 5.62892 30.735 4.90211 31.3581V31.3597ZM17.0673 18.7978L15.1609 16.9269L17.0673 15.056L18.9737 16.9269L17.0673 18.7978V18.7978ZM45.3906 20.6687L43.4843 18.7977L45.3906 16.9268L47.297 18.7977L45.3906 20.6687V20.6687Z" fill="#333333"/>
</g>
<defs>
<clipPath id="clip0_1_224">
<rect width="50" height="50" fill="white"/>
</clipPath>
</defs>
</svg>
